<svg width="36" height="36" viewBox="0 0 36 36" fill="none" xmlns="http://www.w3.org/2000/svg">
<g clip-path="url(#clip0)">
<path d="M32.8735 7.88119C31.2512 5.82546 28.8177 3.375 26.4375 3.375C25.7154 3.375 24.9875 3.86958 24.0051 4.79468C22.614 4.17445 19.5535 3.375 18 3.375C16.4452 3.375 13.3847 4.17502 11.9949 4.79468C11.0125 3.86958 10.2846 3.375 9.5625 3.375C7.18235 3.375 4.74884 5.82546 3.12652 7.88119C1.9177 9.41295 0 12.2928 0 13.5C0 15.7674 0.073336 16.7853 1.9125 19.2375C3.31636 21.1093 3.46514 23.8359 4.40684 25.3166C5.02298 26.2854 5.95209 26.6715 7.02288 26.4039C8.08995 26.1371 8.78281 25.2375 9.08979 23.7259C10.2774 25.3616 10.0775 26.323 10.1559 26.8793C10.2348 28.9987 13.8609 32.625 18 32.625C22.1323 32.625 25.765 29.0025 25.8441 26.8794C25.9221 26.3258 25.7156 25.363 26.9092 23.7215C27.223 25.2714 28.0357 26.4868 29.6224 26.4868C32.5965 26.4868 32.1003 21.8871 34.0874 19.2376C35.9266 16.7854 35.9999 15.7674 35.9999 13.5001C36 12.2928 34.0823 9.41295 32.8735 7.88119V7.88119ZM18 24.1875C17.4143 24.1875 16.7206 23.3033 16.4343 22.745C17.2661 22.4183 18.7334 22.4182 19.5657 22.745C19.2794 23.3033 18.5857 24.1875 18 24.1875ZM17.9999 28.6848C18.7309 29.2369 19.6859 29.5701 20.6672 29.6932C18.8933 30.6008 17.1087 30.6018 15.3328 29.6932C16.314 29.5701 17.269 29.2369 17.9999 28.6848V28.6848ZM32.2875 17.8875C30.5161 20.2492 30.2444 23.6697 29.6011 24.2354C29.1995 24.1988 29.0511 22.9721 29.0153 22.5702C28.8309 20.4962 29.25 17.5331 29.25 15.75C29.25 12.7069 26.978 8.12784 26.8812 7.93441C26.6034 7.37866 25.9275 7.15352 25.3719 7.43126C24.8162 7.70913 24.591 8.38491 24.8688 8.94059C25.4616 10.1262 27 13.6607 27 15.75C27 16.9237 26.7854 18.8015 26.7313 20.604C26.1231 21.1283 23.625 23.4626 23.625 26.4375C23.625 27.832 19.7123 27.8362 18.9939 26.475C18.9636 26.4176 18.9219 26.3519 18.8773 26.2961C20.5675 25.7568 21.9375 23.6292 21.9375 22.5C21.9375 19.4802 14.0625 19.4802 14.0625 22.5C14.0625 23.6288 15.4278 25.7553 17.1227 26.2961C17.0786 26.3511 17.0369 26.4165 17.0061 26.4749C16.2852 27.8402 12.375 27.8295 12.375 26.4375C12.375 23.4626 9.87694 21.1283 9.26866 20.604C9.21656 18.8669 9 16.8948 9 15.75C9 13.6658 10.5386 10.1277 11.1312 8.94059C11.4091 8.38491 11.1838 7.70913 10.6281 7.43126C10.0724 7.15338 9.39656 7.37866 9.11876 7.93441C9.02201 8.12784 6.75 12.7069 6.75 15.75C6.75 17.534 7.16892 20.4977 6.98463 22.5702C6.94891 22.9721 6.80048 24.1987 6.39886 24.2354C5.74882 23.6638 5.49007 20.2577 3.71243 17.8875C2.26554 15.9583 2.25014 15.4325 2.24993 13.5612C2.38043 13.043 3.44651 11.0651 5.05034 9.07755C6.74128 6.98189 8.37809 5.70495 9.46139 5.62866C9.79376 5.79565 10.4823 6.44836 11.017 6.98302C11.443 7.40911 12.1302 7.42388 12.5741 7.0155C13.1331 6.63391 16.4959 5.625 18 5.625C19.5041 5.625 22.8669 6.63391 23.4259 7.0155C23.8693 7.42338 24.5565 7.40953 24.983 6.98302C25.9112 6.05482 26.3405 5.72878 26.5388 5.62866C27.6221 5.70509 29.2588 6.9821 30.9496 9.07755C32.5534 11.0651 33.6195 13.043 33.75 13.5612C33.7499 15.4325 33.7344 15.9583 32.2875 17.8875V17.8875Z" fill="#134C5F"/>
<path d="M12.6562 16.3125C13.4329 16.3125 14.0625 15.6829 14.0625 14.9062C14.0625 14.1296 13.4329 13.5 12.6562 13.5C11.8796 13.5 11.25 14.1296 11.25 14.9062C11.25 15.6829 11.8796 16.3125 12.6562 16.3125Z" fill="#134C5F"/>
<path d="M23.3438 16.3125C24.1204 16.3125 24.75 15.6829 24.75 14.9062C24.75 14.1296 24.1204 13.5 23.3438 13.5C22.5671 13.5 21.9375 14.1296 21.9375 14.9062C21.9375 15.6829 22.5671 16.3125 23.3438 16.3125Z" fill="#134C5F"/>
</g>
<defs>
<clipPath id="clip0">
<rect width="36" height="36" fill="white"/>
</clipPath>
</defs>
</svg>
