<svg width="46" height="46" viewBox="0 0 46 46" fill="none" xmlns="http://www.w3.org/2000/svg">
<circle cx="23" cy="23" r="23" fill="#C8E7E1"/>
<g clip-path="url(#clip0)">
<path d="M34.6551 14.9109C33.4384 13.3691 31.6132 11.5312 29.8281 11.5312C29.2865 11.5312 28.7406 11.9022 28.0038 12.596C26.9605 12.1308 24.6651 11.5312 23.5 11.5312C22.3339 11.5312 20.0385 12.1313 18.9962 12.596C18.2594 11.9022 17.7135 11.5312 17.1719 11.5312C15.3868 11.5312 13.5616 13.3691 12.3449 14.9109C11.4383 16.0597 10 18.2196 10 19.125C10 20.8255 10.055 21.589 11.4344 23.4281C12.4873 24.832 12.5989 26.877 13.3051 27.9874C13.7672 28.7141 14.4641 29.0036 15.2672 28.8029C16.0675 28.6028 16.5871 27.9282 16.8173 26.7944C17.708 28.0212 17.5581 28.7423 17.6169 29.1595C17.6761 30.749 20.3957 33.4688 23.5 33.4688C26.5992 33.4688 29.3238 30.7519 29.3831 29.1596C29.4416 28.7444 29.2867 28.0222 30.1819 26.7911C30.4173 27.9536 31.0268 28.8651 32.2168 28.8651C34.4473 28.8651 34.0752 25.4153 35.5656 23.4282C36.9449 21.589 36.9999 20.8256 36.9999 19.1251C37 18.2196 35.5617 16.0597 34.6551 14.9109V14.9109ZM23.5 27.1406C23.0607 27.1406 22.5404 26.4775 22.3257 26.0587C22.9496 25.8137 24.05 25.8136 24.6742 26.0587C24.4596 26.4775 23.9393 27.1406 23.5 27.1406ZM23.4999 30.5136C24.0482 30.9277 24.7644 31.1776 25.5004 31.2699C24.1699 31.9506 22.8315 31.9514 21.4996 31.2699C22.2355 31.1776 22.9518 30.9277 23.4999 30.5136V30.5136ZM34.2156 22.4156C32.8871 24.1869 32.6833 26.7523 32.2008 27.1765C31.8996 27.1491 31.7883 26.2291 31.7615 25.9277C31.6232 24.3722 31.9375 22.1498 31.9375 20.8125C31.9375 18.5302 30.2335 15.0959 30.1609 14.9508C29.9525 14.534 29.4456 14.3651 29.0289 14.5734C28.6121 14.7818 28.4432 15.2887 28.6516 15.7054C29.0962 16.5946 30.25 19.2455 30.25 20.8125C30.25 21.6927 30.0891 23.1011 30.0485 24.453C29.5923 24.8462 27.7188 26.597 27.7188 28.8281C27.7188 29.874 24.7842 29.8771 24.2454 28.8562C24.2227 28.8132 24.1915 28.7639 24.158 28.7221C25.4256 28.3176 26.4531 26.7219 26.4531 25.875C26.4531 23.6102 20.5469 23.6102 20.5469 25.875C20.5469 26.7216 21.5709 28.3164 22.842 28.7221C22.809 28.7633 22.7777 28.8124 22.7546 28.8562C22.2139 29.8802 19.2813 29.8722 19.2813 28.8281C19.2813 26.597 17.4077 24.8462 16.9515 24.453C16.9124 23.1502 16.75 21.6711 16.75 20.8125C16.75 19.2493 17.9039 16.5958 18.3484 15.7054C18.5568 15.2887 18.3879 14.7818 17.9711 14.5734C17.5543 14.365 17.0474 14.534 16.8391 14.9508C16.7665 15.0959 15.0625 18.5302 15.0625 20.8125C15.0625 22.1505 15.3767 24.3733 15.2385 25.9277C15.2117 26.2291 15.1004 27.1491 14.7991 27.1765C14.3116 26.7479 14.1176 24.1932 12.7843 22.4156C11.6992 20.9688 11.6876 20.5744 11.6874 19.1709C11.7853 18.7822 12.5849 17.2989 13.7878 15.8082C15.056 14.2364 16.2836 13.2787 17.096 13.2215C17.3453 13.3467 17.8617 13.8363 18.2627 14.2373C18.5823 14.5568 19.0976 14.5679 19.4306 14.2616C19.8498 13.9754 22.3719 13.2188 23.5 13.2188C24.6281 13.2188 27.1502 13.9754 27.5694 14.2616C27.902 14.5675 28.4174 14.5571 28.7373 14.2373C29.4334 13.5411 29.7554 13.2966 29.9041 13.2215C30.7165 13.2788 31.9441 14.2366 33.2122 15.8082C34.4151 17.2989 35.2146 18.7822 35.3125 19.1709C35.3124 20.5744 35.3008 20.9688 34.2156 22.4156V22.4156Z" fill="#134C5F"/>
<path d="M19.4922 21.2344C20.0747 21.2344 20.5469 20.7622 20.5469 20.1797C20.5469 19.5972 20.0747 19.125 19.4922 19.125C18.9097 19.125 18.4375 19.5972 18.4375 20.1797C18.4375 20.7622 18.9097 21.2344 19.4922 21.2344Z" fill="#134C5F"/>
<path d="M27.5078 21.2344C28.0903 21.2344 28.5625 20.7622 28.5625 20.1797C28.5625 19.5972 28.0903 19.125 27.5078 19.125C26.9253 19.125 26.4531 19.5972 26.4531 20.1797C26.4531 20.7622 26.9253 21.2344 27.5078 21.2344Z" fill="#134C5F"/>
</g>
<defs>
<clipPath id="clip0">
<rect width="27" height="27" fill="white" transform="translate(10 9)"/>
</clipPath>
</defs>
</svg>
