<svg width="32" height="32" viewBox="0 0 32 32" fill="none" xmlns="http://www.w3.org/2000/svg">
<g clip-path="url(#clip0)">
<path d="M17.8992 31.2127L31.2102 17.9018C32.26 16.8519 32.26 15.1492 31.2102 14.0994C30.1603 13.0496 28.4576 13.0496 27.4078 14.0994L15.9994 25.5079L4.59101 14.0994C3.54116 13.0496 1.83847 13.0496 0.788624 14.0994C-0.261223 15.1492 -0.261223 16.8519 0.788624 17.9018L14.0995 31.2127C15.1467 32.2625 16.8494 32.2625 17.8992 31.2127ZM18.7053 15.2079L29.8432 4.64015C30.961 3.57828 30.961 1.85833 29.8432 0.796461C28.7254 -0.265413 26.9122 -0.265413 25.793 0.796461L16.6802 9.44303L7.56733 0.796461C6.44951 -0.265413 4.63498 -0.265413 3.51716 0.796461C2.39934 1.85833 2.39934 3.57828 3.51716 4.64015L14.6551 15.2079C15.7729 16.2697 17.5861 16.2697 18.7053 15.2079Z" fill="#134C5F"/>
</g>
<defs>
<clipPath id="clip0">
<rect width="32" height="32" fill="white" transform="translate(32) rotate(90)"/>
</clipPath>
</defs>
</svg>
