<svg width="61" height="61" viewBox="0 0 61 61" fill="none" xmlns="http://www.w3.org/2000/svg">
<path d="M52.0668 8.93322C46.3061 3.17258 38.6467 0 30.5 0C24.3014 0 18.3328 1.85087 13.2404 5.35202C12.6982 5.72527 12.561 6.46664 12.9337 7.00882C13.3065 7.55147 14.0484 7.68876 14.5905 7.31551C19.284 4.08848 24.7854 2.38281 30.5 2.38281C46.0036 2.38281 58.6172 14.9964 58.6172 30.5C58.6172 46.0036 46.0036 58.6172 30.5 58.6172C14.9964 58.6172 2.38281 46.0036 2.38281 30.5C2.38281 24.7845 4.08848 19.2836 7.31505 14.591C7.68783 14.0488 7.55054 13.3074 7.00835 12.9347C6.46664 12.5619 5.7248 12.6987 5.35155 13.2409C1.8504 18.3323 0 24.3005 0 30.5C0 38.6467 3.17258 46.3061 8.93322 52.0668C14.6939 57.8274 22.3533 61 30.5 61C38.6467 61 46.3061 57.8274 52.0668 52.0668C57.8274 46.3061 61 38.6467 61 30.5C61 22.3533 57.8274 14.6939 52.0668 8.93322V8.93322Z" fill="#134C5F"/>
<path d="M9.77509 10.967C10.0804 10.967 10.3857 10.8506 10.6184 10.6179C11.0833 10.153 11.0833 9.39861 10.6184 8.93321C10.153 8.46782 9.39859 8.46782 8.9332 8.93321L8.93273 8.93368C8.46734 9.39907 8.4678 10.153 8.93273 10.6184C9.16543 10.8511 9.47026 10.967 9.77509 10.967Z" fill="#134C5F"/>
<path d="M20.9282 38.7551C20.7578 38.1194 20.1044 37.7424 19.4692 37.9128C18.8334 38.0831 18.456 38.7361 18.6263 39.3718C20.0639 44.7359 24.9464 48.4823 30.4999 48.4823C36.0535 48.4823 40.9359 44.7364 42.3735 39.3718C42.5438 38.7361 42.1664 38.0831 41.5307 37.9128C40.8949 37.7424 40.242 38.1194 40.0717 38.7551C38.9128 43.0796 34.977 46.0995 30.4999 46.0995C26.0228 46.0995 22.087 43.0796 20.9282 38.7551V38.7551Z" fill="#134C5F"/>
<path d="M36.997 30.0313C37.3646 28.6603 38.6123 27.7025 40.0318 27.7025C41.4508 27.7025 42.6985 28.6603 43.0662 30.0313C43.2086 30.5633 43.6898 30.9147 44.2161 30.9147C44.3181 30.9147 44.4218 30.9012 44.5252 30.8737C45.1609 30.7034 45.5379 30.05 45.3675 29.4147C44.7216 27.0035 42.5277 25.3197 40.0318 25.3197C37.5359 25.3197 35.3415 27.0035 34.6956 29.4147C34.5252 30.05 34.9022 30.7034 35.5379 30.8737C36.1741 31.044 36.8271 30.6666 36.997 30.0313V30.0313Z" fill="#134C5F"/>
<path d="M20.9683 25.3197C18.4724 25.3197 16.2786 27.0035 15.6326 29.4147C15.4623 30.05 15.8392 30.7034 16.475 30.8737C17.1111 31.044 17.7641 30.6666 17.934 30.0313C18.3016 28.6603 19.5493 27.7025 20.9683 27.7025C22.3878 27.7025 23.6355 28.6603 24.0032 30.0313C24.1456 30.5633 24.6268 30.9147 25.1531 30.9147C25.2551 30.9147 25.3588 30.9012 25.4622 30.8737C26.0979 30.7034 26.4749 30.05 26.3045 29.4147C25.6586 27.0035 23.4642 25.3197 20.9683 25.3197V25.3197Z" fill="#134C5F"/>
</svg>
