<svg width="61" height="61" viewBox="0 0 61 61" fill="none" xmlns="http://www.w3.org/2000/svg">
<g clip-path="url(#clip0)">
<path d="M5.95703 34.205C5.29943 34.205 4.76562 34.7388 4.76562 35.3964C4.76562 36.054 5.29943 36.5878 5.95703 36.5878C6.61463 36.5878 7.14844 36.054 7.14844 35.3964C7.14844 34.7388 6.61463 34.205 5.95703 34.205Z" fill="#134C5F"/>
<path d="M54.7592 38.3363L43.5274 42.1977C43.5772 41.9212 43.6051 41.6392 43.6051 41.353C43.6051 38.7254 41.4675 36.5873 38.8395 36.5873H31.1242C30.9194 36.5873 30.7174 36.5348 30.5392 36.4342L24.2447 32.894C23.0002 32.1926 21.5859 31.8217 20.1548 31.8217H11.7088C11.2174 30.4353 9.89288 29.4394 8.33986 29.4394H1.19141C0.533341 29.4394 0 29.9727 0 30.6308V52.0757C0 52.7337 0.533341 53.2671 1.19141 53.2671H8.33986C9.85751 53.2671 11.1588 52.3135 11.6753 50.9741C13.024 51.1416 14.5845 51.5405 15.5651 52.1287L21.7958 55.8672C24.1563 57.2839 26.8588 58.0327 29.6121 58.0327C31.7939 58.0327 33.9077 57.5748 35.8954 56.6719L58.1324 46.8805C60.5952 45.8813 61.8113 42.9265 60.4035 40.3221C59.368 38.4056 56.9428 37.553 54.7592 38.3363V38.3363ZM9.53127 49.6984C9.52848 50.3528 8.99467 50.8842 8.33986 50.8842H2.38282V31.8222H8.33986C8.99653 31.8222 9.53127 32.3565 9.53127 33.0136V49.6984ZM57.2272 44.6768C57.2146 44.6815 57.202 44.6871 57.1895 44.6922C57.1895 44.6922 34.9194 54.498 34.9152 54.4999C33.2375 55.2631 31.4532 55.6499 29.6121 55.6499C27.2907 55.6499 25.0121 55.0188 23.0221 53.8241L16.7909 50.0856C15.4571 49.2856 13.5472 48.7979 11.9141 48.6024V34.205H20.1548C21.1768 34.205 22.1867 34.4693 23.0761 34.9706L29.3705 38.5108C29.9039 38.8115 30.5108 38.9706 31.1242 38.9706H38.8395C40.1533 38.9706 41.2223 40.0392 41.2223 41.3534C41.2223 42.6626 40.1528 43.7363 38.8395 43.7363H26.728C26.07 43.7363 25.5366 44.2696 25.5366 44.9277C25.5366 45.5853 26.07 46.1186 26.728 46.1186H38.8395C39.6208 46.1186 40.3901 45.9245 41.0729 45.5606C41.0729 45.5606 55.5536 40.5828 55.5592 40.5809C56.6268 40.1955 57.834 40.579 58.3073 41.4549C59.0171 42.7678 58.4302 44.1951 57.2272 44.6768V44.6768Z" fill="#134C5F"/>
<path d="M34.6994 31.8766C34.9237 32.0707 35.2016 32.1675 35.4799 32.1675C35.7582 32.1675 36.0365 32.0707 36.2603 31.8766C45.981 23.4521 51.9939 19.1886 51.9939 12.5632C51.9939 7.32198 48.2833 2.97845 43.0704 2.97845C39.647 2.97845 37.0254 4.95172 35.337 7.91303C33.6523 4.95824 31.0335 2.97845 27.6049 2.97845C23.6142 2.97845 20.2778 5.56465 19.105 9.56657C18.9197 10.1981 19.2818 10.8599 19.9134 11.0451C20.5449 11.2304 21.2067 10.8683 21.3915 10.2367C22.2594 7.27497 24.6981 5.36127 27.6049 5.36127C31.0037 5.36127 33.3879 8.37935 34.1889 11.1894C34.3317 11.7055 34.8018 12.0629 35.337 12.0629C35.8727 12.0629 36.3422 11.7055 36.4851 11.1894C36.5014 11.1312 38.1563 5.36127 43.0704 5.36127C46.7992 5.36127 49.6111 8.45707 49.6111 12.5632C49.6111 17.8631 44.4303 21.684 35.4789 29.4021C30.025 24.7184 25.6926 21.4216 23.2302 18.1964C22.8309 17.6733 22.0835 17.5727 21.5604 17.9721C21.0373 18.3714 20.9372 19.1188 21.3361 19.6423C24.1117 23.2775 28.7973 26.7606 34.6994 31.8766V31.8766Z" fill="#134C5F"/>
<path d="M20.1349 13.4745C19.4773 13.4745 18.9435 14.0083 18.9435 14.6659C18.9435 15.3235 19.4773 15.8573 20.1349 15.8573C20.7925 15.8573 21.3263 15.3235 21.3263 14.6659C21.3263 14.0083 20.7925 13.4745 20.1349 13.4745Z" fill="#134C5F"/>
</g>
<defs>
<clipPath id="clip0">
<rect width="61" height="61" fill="white"/>
</clipPath>
</defs>
</svg>
