<svg width="61" height="61" viewBox="0 0 61 61" fill="none" xmlns="http://www.w3.org/2000/svg">
<g clip-path="url(#clip0)">
<path d="M0.369253 16.6179C0.554874 17.0706 1.01845 17.3705 1.50776 17.3534C2.001 17.3363 2.43539 17.0096 2.59683 16.5453C2.75766 16.083 2.60111 15.5517 2.22475 15.242C1.83004 14.9173 1.25363 14.884 0.824013 15.1611C0.346854 15.4686 0.150749 16.0934 0.369253 16.6179Z" fill="#134C5F"/>
<path d="M49.4509 25.7489C49.5677 25.4479 49.6753 25.1477 49.773 24.8495C50.4306 22.8432 50.6993 20.8035 50.5945 18.6139C50.4208 14.9869 48.7423 11.4999 45.8681 8.7952C43.1087 6.19842 39.6025 4.70905 36.2486 4.70905C31.2519 4.70905 27.3468 7.49848 25.4637 9.16132C25.3236 9.28511 25.1194 9.28773 24.9783 9.16716C23.0265 7.50217 19.0352 4.70905 14.2334 4.70905C10.2655 4.70905 6.04164 6.84988 3.21003 10.296C2.79233 10.8044 2.86572 11.5552 3.37409 11.9729C3.88258 12.3907 4.63328 12.3172 5.05099 11.8089C7.44166 8.89945 10.9602 7.09197 14.2334 7.09197C18.271 7.09197 21.7296 9.52804 23.4317 10.9801C24.4675 11.8637 26.0191 11.8497 27.0408 10.9476C28.6715 9.50766 32.0363 7.09197 36.2485 7.09197C41.6338 7.09197 47.8953 12.0682 48.2144 18.7279C48.3049 20.6222 48.0739 22.3819 47.5083 24.1075C47.3744 24.5161 47.2236 24.9191 47.0519 25.3263C46.5733 25.2809 46.0885 25.2577 45.5984 25.2577C37.1061 25.2577 30.197 32.2184 30.197 40.7744C30.197 41.179 30.2125 41.58 30.2429 41.977C29.0643 42.9381 28.1066 43.725 27.3062 44.4025C26.0975 45.4256 24.3433 45.4254 23.1348 44.4017C22.0538 43.4858 20.6481 42.3405 19.1601 41.1279C13.7889 36.751 6.43266 30.7567 4.66188 27.7482C3.49764 25.7702 2.80198 23.9787 2.47267 22.1101C2.43467 21.8941 2.40095 21.6745 2.37283 21.4573C2.28812 20.8048 1.69051 20.3444 1.03798 20.4291C0.385451 20.5139 -0.0749074 21.1116 0.00980145 21.764C0.0425651 22.0168 0.0817622 22.2724 0.126082 22.5236C0.506379 24.6814 1.29509 26.7256 2.60837 28.9567C4.59599 32.3338 11.8367 38.234 17.6549 42.9749C19.134 44.1801 20.5309 45.3185 21.5946 46.2197C22.6452 47.1098 23.9328 47.5547 25.221 47.5547C26.5081 47.5547 27.7955 47.11 28.8457 46.2211C29.3808 45.7683 29.9903 45.2632 30.6929 44.6868C32.4184 51.355 38.447 56.2911 45.5984 56.2911C54.0907 56.2911 60.9997 49.3303 60.9997 40.7744C60.9999 33.5581 56.0851 27.4764 49.4509 25.7489ZM45.5986 53.9082C38.4201 53.9082 32.5799 48.0163 32.5799 40.7743C32.5799 33.5322 38.4201 27.6404 45.5986 27.6404C52.7771 27.6404 58.6172 33.5322 58.6172 40.7743C58.6171 48.0163 52.7771 53.9082 45.5986 53.9082Z" fill="#134C5F"/>
<path d="M51.3053 36.6807H49.6679V35.0184C49.6679 33.5568 48.4841 32.3678 47.029 32.3678H44.1683C42.7133 32.3678 41.5295 33.5568 41.5295 35.0184V36.6807H39.892C38.437 36.6807 37.2532 37.8697 37.2532 39.3313V42.2175C37.2532 43.6791 38.437 44.8681 39.892 44.8681H41.5295V46.5305C41.5295 47.992 42.7133 49.1811 44.1683 49.1811H47.029C48.4841 49.1811 49.6679 47.9921 49.6679 46.5305V44.8681H51.3053C52.7604 44.8681 53.9442 43.6791 53.9442 42.2175V39.3313C53.9443 37.8697 52.7604 36.6807 51.3053 36.6807ZM51.5615 42.2174C51.5615 42.365 51.4466 42.4852 51.3055 42.4852H48.4766C47.8187 42.4852 47.2852 43.0186 47.2852 43.6766V46.5304C47.2852 46.678 47.1703 46.7982 47.0291 46.7982H44.1685C44.0272 46.7982 43.9124 46.6781 43.9124 46.5304V43.6766C43.9124 43.0186 43.3789 42.4852 42.721 42.4852H39.8921C39.7508 42.4852 39.6361 42.3651 39.6361 42.2174V39.3312C39.6361 39.1834 39.751 39.0634 39.8921 39.0634H42.721C43.3789 39.0634 43.9124 38.53 43.9124 37.8719V35.0183C43.9124 34.8706 44.0273 34.7505 44.1685 34.7505H47.0291C47.1703 34.7505 47.2852 34.8706 47.2852 35.0183V37.8719C47.2852 38.53 47.8187 39.0634 48.4766 39.0634H51.3055C51.4468 39.0634 51.5615 39.1834 51.5615 39.3312V42.2174Z" fill="#134C5F"/>
</g>
<defs>
<clipPath id="clip0">
<rect width="61" height="61" fill="white"/>
</clipPath>
</defs>
</svg>
