<svg width="62" height="62" viewBox="0 0 62 62" fill="none" xmlns="http://www.w3.org/2000/svg">
<g clip-path="url(#clip0)">
<path d="M58.1574 45.9632L55.9606 42.4964C55.6026 41.9312 54.8547 41.7637 54.2895 42.1213C53.7247 42.4794 53.5572 43.2277 53.9148 43.7925L56.112 47.2598C56.5027 47.8766 56.4091 48.6963 55.8892 49.2096C55.5614 49.5331 55.1106 49.6949 54.6513 49.6537C54.1925 49.6121 53.7776 49.3728 53.5123 48.9958L44.0428 35.5283L40.2884 26.5721V25.5196C40.2884 24.8512 39.7463 24.3087 39.0775 24.3087C38.4091 24.3087 37.8666 24.8512 37.8666 25.5196V41.6568H24.2293V26.8308C24.2293 26.827 24.2293 26.8228 24.2293 26.8185V25.5196C24.2293 24.8512 23.6872 24.3087 23.0183 24.3087C22.3495 24.3087 21.8074 24.8512 21.8074 25.5196V26.5844L18.0587 35.5283L8.58877 48.9958C8.32388 49.3723 7.90856 49.6121 7.44973 49.6533C6.99137 49.6944 6.53963 49.5331 6.21183 49.2091C5.69197 48.6963 5.59831 47.8766 5.98903 47.2593L14.4046 33.9787C14.4571 33.8964 14.4987 33.8089 14.5299 33.7166L18.1287 23.0145C19.3964 19.244 22.9214 16.711 26.899 16.711H35.202C39.1801 16.711 42.7046 19.244 43.9723 23.0145L47.5716 33.7166C47.6023 33.8089 47.6444 33.8964 47.6965 33.9787L49.3407 36.5742C49.5715 36.9379 49.9637 37.1371 50.3648 37.1371C50.5866 37.1371 50.8108 37.076 51.0119 36.9488C51.5767 36.5907 51.7446 35.8424 51.3865 35.2776L49.8203 32.8061L46.2679 22.2425C44.8124 17.9134 40.9989 14.878 36.5421 14.3662C37.8599 12.9954 38.6731 11.1354 38.6731 9.0882V7.50121C38.6731 3.29839 35.2536 -0.121094 31.0503 -0.121094C26.8475 -0.121094 23.428 3.29839 23.428 7.50121V9.0882C23.428 11.1354 24.2406 12.9954 25.559 14.3662C21.1021 14.878 17.2886 17.9134 15.8326 22.2425L12.2807 32.8061L3.94321 45.9632C2.94654 47.5355 3.18542 49.6258 4.51083 50.9333C5.11252 51.5269 5.8774 51.9067 6.69478 52.0335C6.69431 52.0349 6.69384 52.0359 6.69384 52.0368C6.05384 53.7487 6.07843 55.6247 6.7629 57.3191C7.89721 60.1274 10.6161 61.879 13.5248 61.879C14.1511 61.879 14.7868 61.7977 15.4169 61.6279L31.0503 57.4198L46.6837 61.6279C47.3138 61.7977 47.949 61.879 48.5758 61.879C51.4835 61.8786 54.2029 60.1269 55.3372 57.3191C56.0217 55.6247 56.0463 53.7487 55.4067 52.0368C55.4063 52.0359 55.4058 52.0349 55.4053 52.0335C56.2227 51.9067 56.9876 51.5269 57.5897 50.9333C58.9151 49.6263 59.154 47.536 58.1574 45.9632V45.9632ZM25.8499 7.50121C25.8499 4.63374 28.1828 2.30079 31.0508 2.30079C33.9182 2.30079 36.2512 4.63374 36.2512 7.50121V9.0882C36.2512 11.9561 33.9182 14.2891 31.0508 14.2891C28.1828 14.2891 25.8499 11.9557 25.8499 9.0882V7.50121ZM41.8593 36.5855C41.8929 36.6659 41.9355 36.743 41.9856 36.814L48.8156 46.5271L40.2884 42.179V32.8373L41.8593 36.5855ZM20.1154 36.814C20.1655 36.743 20.2076 36.6659 20.2412 36.5855L21.8074 32.8496V42.1819L13.2849 46.5271L20.1154 36.814ZM53.0922 56.4123C52.1713 58.6913 49.6869 59.9283 47.3133 59.2897L35.0625 55.9918C36.044 55.2179 36.6556 54.0212 36.6556 52.7147C36.6556 52.6693 36.6532 52.6243 36.6518 52.5794L44.2221 54.3674C44.3158 54.3896 44.4094 54.4001 44.5017 54.4001C45.0504 54.4001 45.5475 54.0245 45.679 53.4673C45.8327 52.8164 45.4297 52.1641 44.7788 52.0103L35.7228 49.8713C35.6509 49.8543 35.5785 49.8453 35.5066 49.8415C35.3723 49.701 35.2285 49.5672 35.0729 49.4442C34.0672 48.6486 32.7745 48.3614 31.5261 48.6557L17.3222 52.0103C16.6713 52.1641 16.2683 52.8164 16.422 53.4673C16.5758 54.1181 17.2276 54.5211 17.8789 54.3674L32.0824 51.0127C32.6065 50.8888 33.1486 51.0094 33.5701 51.3434C33.992 51.6773 34.2337 52.1773 34.2337 52.7147C34.2337 53.5041 33.7011 54.1985 32.9391 54.4038L30.783 54.9842C30.7575 54.9899 30.7329 54.997 30.7083 55.0041L14.7877 59.2892C12.4141 59.9283 9.92979 58.6913 9.00881 56.4123C8.05709 54.0552 9.04665 51.4068 11.311 50.2521L23.419 44.0787H38.682L50.79 50.2521C53.0544 51.4072 54.0444 54.0552 53.0922 56.4123V56.4123Z" fill="#134C5F"/>
<path d="M51.6613 40.2978C51.8978 40.5348 52.2081 40.6535 52.5189 40.6535C52.8282 40.6535 53.1376 40.5358 53.3741 40.2997L53.419 40.2552C53.8925 39.7827 53.8935 39.0159 53.4209 38.5424C52.9488 38.0689 52.1821 38.068 51.7086 38.5401L51.6636 38.585C51.1901 39.0575 51.1892 39.8243 51.6613 40.2978Z" fill="#134C5F"/>
</g>
<defs>
<clipPath id="clip0">
<rect width="61.879" height="62" fill="white"/>
</clipPath>
</defs>
</svg>
