<svg width="204" height="443" viewBox="0 0 204 443" fill="none" xmlns="http://www.w3.org/2000/svg">
<path fill-rule="evenodd" clip-rule="evenodd" d="M204 442.869C201.955 442.956 199.96 443 198.015 443C68.6874 443 0 350.097 0 263.665C0 194.662 85.3945 12.2254 204 0.58429V442.869Z" fill="#FEE46D"/>
<g clip-path="url(#clip0)">
<path d="M65.3164 230.761C60.8252 230.457 56.9421 231.775 54.3822 234.473C51.8222 237.171 50.7088 241.118 51.2472 245.587C51.731 249.604 53.5191 253.424 56.0302 255.807C57.2501 256.965 58.5332 257.474 59.8438 257.32C61.1375 257.168 62.2516 256.404 63.2661 255.335C64.3458 254.197 65.3129 252.714 66.263 251.257C67.0933 249.983 67.8775 248.78 68.6269 247.991C69.2736 247.309 70.3638 246.518 71.5179 245.68C74.215 243.721 77.272 241.502 77.4549 238.717C77.5419 237.393 76.9762 236.144 75.7736 235.002C73.2625 232.619 69.3533 231.034 65.3164 230.761Z" fill="#FDD532"/>
<path d="M65.3161 230.761C60.825 230.457 56.9419 231.776 54.3819 234.473C51.822 237.171 50.7086 241.118 51.2469 245.587C51.7307 249.604 53.5188 253.425 56.03 255.808C57.2499 256.965 58.5329 257.474 59.8436 257.32C61.1373 257.168 62.2513 256.404 63.2659 255.335C64.3455 254.197 65.3126 252.714 66.2628 251.257C67.0931 249.983 67.8773 248.78 68.6266 247.991C69.2733 247.309 70.3636 246.518 71.5176 245.68C74.2148 243.721 77.2718 241.502 77.4547 238.717C77.5416 237.393 76.9759 236.144 75.7734 235.002C73.2623 232.619 69.353 231.034 65.3161 230.761Z" fill="#FDD532"/>
<path d="M51.8634 217.59C50.0167 217.286 48.3369 217.765 47.2545 218.906C46.1721 220.047 45.781 221.749 46.1813 223.578C46.5492 225.257 47.5387 226.929 48.9677 228.285C50.3968 229.641 52.118 230.542 53.8145 230.821C55.6611 231.125 57.341 230.646 58.4234 229.505C59.5058 228.364 59.8969 226.662 59.4966 224.833C59.1287 223.154 58.1392 221.482 56.7102 220.126C55.2811 218.77 53.5598 217.869 51.8634 217.59Z" fill="#FDD532"/>
<path d="M43.0722 226.854C41.2255 226.55 39.5457 227.029 38.4632 228.17C37.3808 229.311 36.9897 231.013 37.3901 232.842C37.7579 234.521 38.7474 236.193 40.1765 237.549C41.6055 238.905 43.3268 239.806 45.0232 240.085C46.8699 240.389 48.5498 239.91 49.6322 238.769C50.7146 237.628 51.1057 235.926 50.7053 234.097C50.3375 232.418 49.348 230.746 47.9189 229.39C46.4898 228.034 44.7685 227.133 43.0722 226.854Z" fill="#FDD532"/>
<path d="M67.9098 218.237C66.5732 217.552 65.189 217.49 64.0124 218.062C63.0654 218.522 62.3452 219.372 61.9843 220.456C61.4868 221.949 61.6839 223.743 62.5252 225.376C63.2126 226.711 64.257 227.788 65.4662 228.407C66.8027 229.091 68.1869 229.153 69.3637 228.582C69.7709 228.384 70.1361 228.114 70.4489 227.784C70.8635 227.347 71.1861 226.805 71.3918 226.188C71.8893 224.694 71.6921 222.901 70.851 221.267L70.8509 221.267C70.1634 219.932 69.119 218.856 67.9098 218.237Z" fill="#FDD532"/>
<path d="M45.7239 243.081C44.0483 242.326 42.247 242.223 40.7817 242.798C39.7183 243.216 38.907 243.979 38.4971 244.949C37.9877 246.154 38.1222 247.533 38.8756 248.832C39.5573 250.007 40.6868 250.994 42.0559 251.61L42.0559 251.61C43.7315 252.365 45.5329 252.468 46.9981 251.893C47.6043 251.655 48.1286 251.305 48.5432 250.868C48.8561 250.538 49.1065 250.159 49.2828 249.742C49.7922 248.537 49.6577 247.158 48.9043 245.859C48.2225 244.684 47.0931 243.698 45.7239 243.081Z" fill="#FDD532"/>
</g>
<g clip-path="url(#clip1)">
<path d="M188.987 172.672C185.485 170.741 181.863 170.345 178.788 171.556C175.714 172.767 173.335 175.527 172.09 179.328C170.972 182.745 170.977 186.493 172.104 189.355C172.652 190.745 173.494 191.637 174.607 192.005C175.706 192.369 176.89 192.172 178.109 191.692C179.405 191.181 180.741 190.35 182.053 189.533C183.2 188.819 184.283 188.145 185.183 187.791C185.96 187.485 187.135 187.256 188.379 187.015C191.287 186.451 194.582 185.811 195.775 183.638C196.342 182.604 196.356 181.385 195.816 180.015C194.689 177.153 192.136 174.408 188.987 172.672Z" fill="#FDD532"/>
<path d="M188.987 172.672C185.485 170.741 181.862 170.345 178.788 171.556C175.713 172.767 173.335 175.527 172.09 179.328C170.971 182.745 170.976 186.493 172.104 189.355C172.651 190.745 173.494 191.637 174.607 192.005C175.706 192.369 176.89 192.172 178.108 191.691C179.405 191.181 180.741 190.35 182.053 189.533C183.2 188.819 184.283 188.145 185.183 187.791C185.96 187.485 187.135 187.256 188.379 187.015C191.286 186.451 194.582 185.811 195.775 183.638C196.342 182.604 196.355 181.385 195.816 180.015C194.688 177.153 192.136 174.408 188.987 172.672Z" fill="#FDD532"/>
<path d="M183.1 157.014C181.727 156.076 180.194 155.831 178.894 156.343C177.594 156.855 176.64 158.08 176.276 159.702C175.941 161.193 176.11 162.911 176.752 164.539C177.393 166.168 178.441 167.54 179.702 168.402C181.075 169.34 182.608 169.585 183.908 169.073C185.208 168.561 186.162 167.336 186.527 165.714C186.861 164.223 186.692 162.505 186.05 160.877C185.409 159.248 184.361 157.876 183.1 157.014Z" fill="#FDD532"/>
<path d="M172.541 161.173C171.168 160.235 169.636 159.99 168.336 160.502C167.036 161.014 166.081 162.239 165.717 163.861C165.383 165.352 165.552 167.07 166.193 168.698C166.835 170.327 167.883 171.699 169.144 172.561C170.517 173.499 172.05 173.744 173.35 173.232C174.65 172.72 175.604 171.495 175.968 169.873C176.303 168.382 176.134 166.664 175.492 165.036C174.85 163.407 173.802 162.035 172.541 161.173Z" fill="#FDD532"/>
<path d="M195.779 163.561C194.96 162.507 193.868 161.938 192.706 161.956C191.771 161.971 190.871 162.385 190.174 163.122C189.212 164.138 188.698 165.657 188.762 167.288C188.814 168.621 189.251 169.88 189.992 170.833C190.811 171.886 191.903 172.456 193.065 172.437C193.467 172.431 193.863 172.351 194.238 172.203C194.736 172.007 195.2 171.691 195.597 171.271C196.559 170.255 197.073 168.737 197.009 167.105L197.009 167.105C196.957 165.772 196.52 164.513 195.779 163.561Z" fill="#FDD532"/>
<path d="M168.583 175.236C167.518 174 166.106 173.24 164.71 173.153C163.697 173.09 162.756 173.4 162.062 174.027C161.2 174.806 160.79 175.967 160.909 177.296C161.017 178.498 161.556 179.717 162.427 180.728L162.427 180.728C163.493 181.965 164.905 182.724 166.301 182.811C166.878 182.847 167.432 182.762 167.93 182.566C168.305 182.418 168.649 182.207 168.948 181.937C169.811 181.158 170.22 179.997 170.101 178.668C169.994 177.466 169.454 176.247 168.583 175.236Z" fill="#FDD532"/>
</g>
<g clip-path="url(#clip2)">
<path d="M106.563 119.241C102.59 119.703 99.4107 121.483 97.611 124.255C95.8112 127.026 95.4776 130.655 96.6716 134.472C97.7447 137.903 99.9256 140.952 102.505 142.627C103.759 143.441 104.962 143.677 106.082 143.331C107.188 142.989 108.037 142.14 108.75 141.042C109.51 139.873 110.114 138.421 110.708 136.994C111.228 135.747 111.718 134.569 112.245 133.758C112.699 133.058 113.524 132.19 114.396 131.271C116.436 129.123 118.747 126.689 118.456 124.226C118.318 123.056 117.621 122.056 116.386 121.253C113.806 119.578 110.134 118.826 106.563 119.241Z" fill="#FDD532"/>
<path d="M106.562 119.241C102.59 119.703 99.4104 121.483 97.6107 124.255C95.811 127.026 95.4774 130.655 96.6713 134.472C97.7445 137.903 99.9253 140.952 102.505 142.627C103.758 143.441 104.962 143.677 106.082 143.331C107.187 142.989 108.037 142.14 108.75 141.042C109.509 139.873 110.114 138.421 110.708 136.994C111.227 135.747 111.718 134.569 112.245 133.758C112.699 133.058 113.524 132.19 114.396 131.271C116.435 129.123 118.747 126.689 118.456 124.226C118.317 123.056 117.621 122.056 116.385 121.253C113.806 119.578 110.133 118.826 106.562 119.241Z" fill="#FDD532"/>
<path d="M92.6767 109.912C91.014 109.946 89.6241 110.637 88.8632 111.808C88.1022 112.98 88.0362 114.531 88.682 116.064C89.2753 117.471 90.4105 118.772 91.8786 119.725C93.3467 120.678 94.9963 121.187 96.5237 121.156C98.1863 121.123 99.5763 120.432 100.337 119.26C101.098 118.088 101.164 116.537 100.518 115.005C99.9251 113.597 98.7898 112.297 97.3218 111.343C95.8537 110.39 94.204 109.882 92.6767 109.912Z" fill="#FDD532"/>
<path d="M86.496 119.429C84.8334 119.463 83.4435 120.154 82.6825 121.326C81.9215 122.497 81.8555 124.048 82.5013 125.581C83.0946 126.988 84.2299 128.289 85.698 129.242C87.166 130.195 88.8157 130.704 90.343 130.673C92.0057 130.64 93.3956 129.949 94.1566 128.777C94.9176 127.605 94.9835 126.054 94.3377 124.522C93.7444 123.114 92.6092 121.814 91.1411 120.86C89.673 119.907 88.0233 119.399 86.496 119.429Z" fill="#FDD532"/>
<path d="M106.8 107.879C105.522 107.497 104.303 107.667 103.367 108.357C102.614 108.913 102.123 109.772 101.983 110.777C101.79 112.162 102.253 113.698 103.252 114.989C104.069 116.044 105.156 116.815 106.312 117.16C107.591 117.542 108.81 117.372 109.746 116.682C110.069 116.443 110.345 116.148 110.565 115.809C110.856 115.36 111.05 114.835 111.13 114.262C111.323 112.876 110.86 111.341 109.861 110.05L109.861 110.05C109.044 108.995 107.957 108.224 106.8 107.879Z" fill="#FDD532"/>
<path d="M91.4405 133.177C89.8545 132.789 88.264 132.991 87.077 133.73C86.2155 134.267 85.6303 135.066 85.4292 135.979C85.1794 137.114 85.5202 138.298 86.3887 139.31C87.1745 140.227 88.3211 140.906 89.6171 141.223L89.6171 141.223C91.2032 141.611 92.7936 141.409 93.9807 140.669C94.4718 140.363 94.8731 139.972 95.1646 139.523C95.3845 139.185 95.5419 138.813 95.6284 138.42C95.8783 137.285 95.5375 136.102 94.669 135.089C93.8831 134.173 92.7366 133.494 91.4405 133.177Z" fill="#FDD532"/>
</g>
<g clip-path="url(#clip3)">
<path d="M192.908 45.3556C191.636 42.7051 189.638 40.9219 187.281 40.3343C184.925 39.7467 182.323 40.3832 179.956 42.1263C177.828 43.6932 176.231 45.9383 175.684 48.1321C175.419 49.1977 175.542 50.0907 176.051 50.7862C176.554 51.4727 177.346 51.8602 178.28 52.093C179.274 52.3408 180.428 52.4135 181.562 52.485C182.553 52.5474 183.489 52.6064 184.179 52.7783C184.774 52.9268 185.575 53.2919 186.422 53.6784C188.403 54.5817 190.647 55.6055 192.289 54.814C193.069 54.4377 193.598 53.7142 193.86 52.6637C194.407 50.47 194.051 47.738 192.908 45.3556Z" fill="#FDD532"/>
<path d="M192.907 45.3556C191.636 42.7051 189.638 40.9219 187.281 40.3343C184.924 39.7467 182.323 40.3832 179.956 42.1263C177.828 43.6932 176.231 45.9383 175.684 48.1321C175.419 49.1977 175.542 50.0907 176.051 50.7862C176.553 51.4727 177.346 51.8602 178.28 52.093C179.274 52.3408 180.428 52.4135 181.562 52.485C182.553 52.5474 183.489 52.6064 184.178 52.7783C184.774 52.9268 185.574 53.2919 186.422 53.6784C188.402 54.5817 190.647 55.6055 192.289 54.814C193.069 54.4377 193.598 53.7142 193.859 52.6637C194.407 50.47 194.051 47.738 192.907 45.3556Z" fill="#FDD532"/>
<path d="M196.068 33.4732C195.647 32.3257 194.834 31.5251 193.837 31.2767C192.841 31.0282 191.747 31.3535 190.837 32.169C190.001 32.9182 189.369 34.0183 189.057 35.2667C188.746 36.5151 188.788 37.7831 189.174 38.8372C189.595 39.9847 190.408 40.7853 191.405 41.0337C192.401 41.2822 193.495 40.9569 194.405 40.1414C195.241 39.3922 195.874 38.2921 196.185 37.0437C196.496 35.7953 196.455 34.5272 196.068 33.4732Z" fill="#FDD532"/>
<path d="M187.975 31.4553C187.554 30.3078 186.741 29.5073 185.744 29.2588C184.748 29.0104 183.654 29.3356 182.744 30.1511C181.908 30.9003 181.276 32.0004 180.964 33.2488C180.653 34.4972 180.695 35.7653 181.081 36.8194C181.502 37.9669 182.315 38.7675 183.312 39.0159C184.308 39.2644 185.402 38.9391 186.312 38.1236C187.148 37.3744 187.781 36.2743 188.092 35.0259C188.403 33.7775 188.361 32.5094 187.975 31.4553Z" fill="#FDD532"/>
<path d="M200.861 42.8021C200.82 41.8222 200.41 41.0155 199.707 40.5305C199.141 40.1402 198.426 40.0042 197.694 40.1476C196.685 40.3451 195.729 41.0339 195.071 42.0375C194.533 42.8576 194.257 43.7973 194.294 44.6838C194.335 45.6636 194.744 46.4704 195.448 46.9554C195.691 47.1232 195.962 47.244 196.25 47.3158C196.632 47.411 197.044 47.42 197.461 47.3383C198.47 47.1408 199.426 46.4519 200.084 45.4484L200.084 45.4484C200.622 44.6283 200.898 43.6885 200.861 42.8021Z" fill="#FDD532"/>
<path d="M179.604 38.1811C179.494 36.9861 178.973 35.929 178.175 35.281C177.596 34.8108 176.901 34.5953 176.218 34.6741C175.369 34.7721 174.629 35.292 174.133 36.138C173.684 36.9034 173.486 37.8627 173.576 38.8392L173.576 38.8392C173.686 40.0343 174.207 41.0913 175.005 41.7393C175.335 42.0074 175.703 42.1927 176.084 42.2879C176.372 42.3597 176.668 42.3802 176.962 42.3463C177.811 42.2483 178.551 41.7284 179.047 40.8824C179.496 40.1171 179.694 39.1577 179.604 38.1811Z" fill="#FDD532"/>
</g>
<defs>
<clipPath id="clip0">
<rect width="42.6757" height="42.6757" fill="white" transform="translate(26 236.956) rotate(-46.5)"/>
</clipPath>
<clipPath id="clip1">
<rect width="37.919" height="37.919" fill="white" transform="translate(155 162.897) rotate(-21.5)"/>
</clipPath>
<clipPath id="clip2">
<rect width="37.919" height="37.919" fill="white" transform="translate(73.2166 131.019) rotate(-57)"/>
</clipPath>
<clipPath id="clip3">
<rect width="27.8707" height="27.8707" fill="white" transform="translate(176.742 25) rotate(14)"/>
</clipPath>
</defs>
</svg>
