<svg width="44" height="44" viewBox="0 0 44 44" fill="none" xmlns="http://www.w3.org/2000/svg">
<g clip-path="url(#clip0)">
<path d="M29.5761 20.1102C26.446 18.7901 23.3513 18.7768 20.8619 20.0727C18.3725 21.3686 16.6083 23.9113 15.8945 27.2324C15.2527 30.2176 15.5898 33.3833 16.7962 35.7007C17.3822 36.8264 18.1727 37.5047 19.1457 37.7168C20.1062 37.9263 21.0889 37.6547 22.0755 37.141C23.1254 36.5945 24.1799 35.7738 25.2159 34.9675C26.1212 34.2628 26.9763 33.5973 27.705 33.2179C28.3339 32.8905 29.3063 32.5935 30.3356 32.2791C32.7413 31.5445 35.468 30.7117 36.2827 28.7698C36.6699 27.8466 36.5734 26.8158 35.9957 25.706C34.7894 23.3886 32.3895 21.2967 29.5761 20.1102Z" fill="#C8E7E1"/>
<path d="M23.2128 7.40685C21.9698 6.7361 20.6533 6.6657 19.6007 7.21363C18.5481 7.76159 17.8508 8.88042 17.6872 10.2833C17.5371 11.572 17.8324 13.008 18.5189 14.3268C19.2054 15.6455 20.2123 16.7112 21.3541 17.3273C22.5971 17.998 23.9136 18.0685 24.9662 17.5205C26.0188 16.9726 26.7162 15.8537 26.8797 14.4509C27.0299 13.1621 26.7345 11.7261 26.048 10.4074C25.3615 9.08862 24.3546 8.02295 23.2128 7.40685Z" fill="#C8E7E1"/>
<path d="M14.6637 11.8571C13.4207 11.1864 12.1043 11.116 11.0517 11.6639C9.99905 12.2119 9.30163 13.3307 9.13817 14.7336C8.988 16.0223 9.28332 17.4583 9.96983 18.7771C10.6563 20.0958 11.6632 21.1614 12.8051 21.7776C14.048 22.4483 15.3645 22.5188 16.4171 21.9709C17.4698 21.4229 18.1671 20.3041 18.3306 18.9012C18.4808 17.6124 18.1855 16.1765 17.4989 14.8577C16.8124 13.5389 15.8055 12.4733 14.6637 11.8571Z" fill="#C8E7E1"/>
<path d="M34.5037 11.8108C33.7182 10.9941 32.7458 10.6097 31.7657 10.7285C30.977 10.8241 30.2542 11.2538 29.7304 11.9384C29.0085 12.8818 28.7085 14.21 28.9074 15.5824C29.0699 16.7039 29.5507 17.7285 30.2613 18.4674C31.0468 19.2842 32.0193 19.6686 32.9994 19.5497C33.3386 19.5086 33.6655 19.4057 33.9697 19.2474C34.3729 19.0375 34.7362 18.73 35.0348 18.3398C35.7567 17.3964 36.0567 16.0682 35.8578 14.6958L35.8578 14.6958C35.6953 13.5743 35.2144 12.5497 34.5037 11.8108Z" fill="#C8E7E1"/>
<path d="M12.5691 24.0875C11.5589 23.1374 10.2988 22.6214 9.11204 22.6716C8.25074 22.708 7.48416 23.0537 6.95346 23.6448C6.29394 24.3796 6.05106 25.3967 6.26955 26.5085C6.46723 27.5145 7.03074 28.4961 7.85618 29.2724L7.85621 29.2725C8.86645 30.2225 10.1265 30.7386 11.3133 30.6884C11.8042 30.6676 12.2644 30.5464 12.6676 30.3365C12.9718 30.1781 13.2436 29.9693 13.4718 29.7151C14.1315 28.9803 14.3743 27.9632 14.1558 26.8514C13.958 25.8455 13.3945 24.864 12.5691 24.0875Z" fill="#C8E7E1"/>
</g>
<defs>
<clipPath id="clip0">
<rect width="32.2056" height="32.2056" fill="white" transform="translate(0 14.8709) rotate(-27.5)"/>
</clipPath>
</defs>
</svg>
